<svg id="Capa_1" enable-background="new 0 0 492.8 492.8" height="512" viewBox="0 0 492.8 492.8" width="512" xmlns="http://www.w3.org/2000/svg"><g><g><g id="XMLID_207_"><g><path d="m478.81 194.809-32.47-32.47c-2.04-2.04-4.81-3.19-7.69-3.19h-13.77c-4.35 0-8.28 2.59-9.99 6.58l-10.7 24.87c-3.66 8.52-12.05 14.04-21.33 14.04h-9.91c-12.83 0-23.22-10.39-23.22-23.22v-12.34c0-5.1-2.03-9.99-5.64-13.59l-15.16-15.12c-4.82-4.81-12.25-5.83-18.19-2.49l-230.32 129.55c-1.37.77-2.87 1.27-4.43 1.46l-52.57 6.47c-13.37 1.65-23.42 13.01-23.42 26.48v2.94l18.316 13.051 96.357 26.168 357.279-8.307 11.548-39.962v-89.58c0-4.25-1.68-8.33-4.69-11.34z" fill="#f9f3f1"/><g><path d="m53.304 300.067 52.57-6.47c1.56-.19 3.06-.69 4.43-1.46l230.32-129.55c2.238-1.258 4.687-1.896 7.128-1.948-.926-1.888-2.144-3.638-3.661-5.151l-15.16-15.12c-4.82-4.81-12.25-5.83-18.19-2.49l-230.321 129.551c-1.37.77-2.87 1.27-4.43 1.46l-52.57 6.47c-13.37 1.65-23.42 13.01-23.42 26.48v2.94l18.316 13.051 12.128 3.294c2.277-10.99 11.331-19.634 22.86-21.057z" fill="#f3eae6"/></g><path d="m472.4 213.099c-22.8 0-41.28 18.49-41.28 41.28v32.08 29.783l52.38-4.647v-15.866-82.63z" fill="#f3eae6"/><path d="m483.5 295.729c5.98 6.73 9.3 15.44 9.3 24.49v19.91c0 13.8-11.18 24.98-24.98 24.98h-352.29c-5.05 0-10.05-1.03-14.69-3.03l-93.88-40.52c-4.22-1.82-6.96-5.98-6.96-10.58v-6.2l4.54 1.29 97.44 24.36c4.64 1.16 9.46 1.41 14.2.74l334.53-47.49c1.73-.25 3.46-.37 5.19-.37 9.71 0 19.12 3.84 26.09 10.81.52.52 1.03 1.06 1.51 1.61z" fill="#efe2dd"/></g></g><path d="m448.688 283.966.234 41.905c0 5.423-4.396 9.819-9.819 9.819h-120.336c-5.423 0-9.819-4.396-9.819-9.819l-.413-22.009z" fill="#f9f3f1"/><g fill="#f3eae6"><path d="m337.692 335.691h15v-38.098l-15 2.13z"/><path d="m370.155 335.691h15v-42.706l-15 2.129z"/><path d="m402.617 335.691h15v-47.314l-15 2.129z"/></g><g><g id="XMLID_210_"><g><path d="m349.73 169.079v12.34l-111.87 60.3c-8.29 4.47-18.37 4.02-26.23-1.17l-38.35-25.35 137.46-77.32c5.94-3.34 13.37-2.32 18.19 2.49l15.16 15.12c3.61 3.6 5.64 8.49 5.64 13.59z" fill="#f3eae6"/></g></g></g><g><path d="m268.992 287.534c-3.565 0-6.727-2.551-7.374-6.184-.729-4.078 1.987-7.973 6.064-8.701l5.266-.94c4.08-.73 7.975 1.987 8.701 6.065.729 4.078-1.987 7.973-6.064 8.701l-5.266.94c-.446.08-.889.119-1.327.119z" fill="#efe2dd"/></g><g><path d="m308.938 278.718c-3.565 0-6.727-2.552-7.375-6.184-.728-4.078 1.988-7.974 6.066-8.701l5.267-.94c4.071-.729 7.974 1.988 8.701 6.065s-1.988 7.974-6.066 8.701l-5.267.94c-.445.08-.888.119-1.326.119z" fill="#efe2dd"/></g></g><path d="m344.09 155.489-15.16-15.12c-4.82-4.81-12.25-5.83-18.19-2.49l-137.46 77.32 33.932 22.43 133.412-75.041c2.238-1.258 4.687-1.896 7.128-1.948-.926-1.889-2.145-3.638-3.662-5.151z" fill="#efe2dd"/><g><path d="m223.115 204.352c-1.975 0-3.945-.774-5.418-2.313l-12.527-13.083c-2.865-2.992-2.762-7.74.23-10.604 2.992-2.865 7.74-2.761 10.604.23l12.527 13.083c2.865 2.992 2.762 7.74-.23 10.604-1.453 1.391-3.322 2.083-5.186 2.083z" fill="#f9f3f1"/></g><g><path d="m250.19 187.441c-1.975 0-3.945-.775-5.419-2.313l-12.526-13.084c-2.864-2.992-2.761-7.74.231-10.604 2.992-2.865 7.739-2.76 10.604.231l12.526 13.084c2.864 2.992 2.761 7.74-.231 10.604-1.452 1.39-3.32 2.082-5.185 2.082z" fill="#f9f3f1"/></g><g><path d="m278.528 171.465c-1.975 0-3.945-.775-5.419-2.313l-12.526-13.084c-2.864-2.992-2.761-7.74.231-10.604s7.739-2.76 10.604.231l12.526 13.084c2.864 2.992 2.761 7.74-.231 10.604-1.452 1.391-3.32 2.082-5.185 2.082z" fill="#f9f3f1"/></g><g><path d="m306.829 155.775c-1.975 0-3.945-.774-5.418-2.313l-12.527-13.084c-2.865-2.992-2.762-7.74.23-10.604s7.74-2.761 10.604.23l12.527 13.084c2.865 2.992 2.762 7.74-.23 10.604-1.453 1.392-3.322 2.083-5.186 2.083z" fill="#f9f3f1"/></g></g></svg>